G75*
%MOIN*%
%OFA0B0*%
%FSLAX25Y25*%
%IPPOS*%
%LPD*%
%AMOC8*
5,1,8,0,0,1.08239X$1,22.5*
%
%ADD10C,0.07400*%
%ADD11C,0.01000*%
%ADD12C,0.04000*%
%ADD13C,0.01600*%
D10*
X0019500Y0071800D03*
X0019500Y0081800D03*
X0019500Y0091800D03*
X0019500Y0101800D03*
X0019500Y0111800D03*
X0019500Y0121800D03*
X0019500Y0131800D03*
X0019500Y0141800D03*
X0019500Y0151800D03*
X0019500Y0161800D03*
X0019500Y0171800D03*
X0019500Y0181800D03*
X0079500Y0181800D03*
X0079500Y0171800D03*
X0079500Y0161800D03*
X0079500Y0151800D03*
X0079500Y0141800D03*
X0079500Y0131800D03*
X0079500Y0121800D03*
X0079500Y0111800D03*
X0079500Y0101800D03*
X0079500Y0091800D03*
X0079500Y0081800D03*
X0079500Y0071800D03*
D11*
X0079250Y0021800D02*
X0029250Y0071800D01*
X0019500Y0071800D01*
D12*
X0079250Y0021800D03*
D13*
X0007800Y0006600D02*
X0007800Y0196961D01*
X0091901Y0196961D01*
X0091901Y0006600D01*
X0007800Y0006600D01*
X0007800Y0006893D02*
X0091901Y0006893D01*
X0091901Y0008491D02*
X0007800Y0008491D01*
X0007800Y0010090D02*
X0091901Y0010090D01*
X0091901Y0011688D02*
X0007800Y0011688D01*
X0007800Y0013287D02*
X0091901Y0013287D01*
X0091901Y0014885D02*
X0007800Y0014885D01*
X0007800Y0016484D02*
X0091901Y0016484D01*
X0091901Y0018082D02*
X0080727Y0018082D01*
X0080046Y0017800D02*
X0081516Y0018409D01*
X0082641Y0019534D01*
X0083250Y0021004D01*
X0083250Y0022596D01*
X0082641Y0024066D01*
X0081516Y0025191D01*
X0080046Y0025800D01*
X0078786Y0025800D01*
X0031369Y0073216D01*
X0030666Y0073919D01*
X0029747Y0074300D01*
X0024634Y0074300D01*
X0024332Y0075029D01*
X0022729Y0076632D01*
X0022324Y0076800D01*
X0022729Y0076968D01*
X0024332Y0078571D01*
X0025200Y0080666D01*
X0025200Y0082934D01*
X0024332Y0085029D01*
X0022729Y0086632D01*
X0022324Y0086800D01*
X0022729Y0086968D01*
X0024332Y0088571D01*
X0025200Y0090666D01*
X0025200Y0092934D01*
X0024332Y0095029D01*
X0022729Y0096632D01*
X0022324Y0096800D01*
X0022729Y0096968D01*
X0024332Y0098571D01*
X0025200Y0100666D01*
X0025200Y0102934D01*
X0024332Y0105029D01*
X0022729Y0106632D01*
X0022324Y0106800D01*
X0022729Y0106968D01*
X0024332Y0108571D01*
X0025200Y0110666D01*
X0025200Y0112934D01*
X0024332Y0115029D01*
X0022729Y0116632D01*
X0022324Y0116800D01*
X0022729Y0116968D01*
X0024332Y0118571D01*
X0025200Y0120666D01*
X0025200Y0122934D01*
X0024332Y0125029D01*
X0022729Y0126632D01*
X0022324Y0126800D01*
X0022729Y0126968D01*
X0024332Y0128571D01*
X0025200Y0130666D01*
X0025200Y0132934D01*
X0024332Y0135029D01*
X0022729Y0136632D01*
X0022324Y0136800D01*
X0022729Y0136968D01*
X0024332Y0138571D01*
X0025200Y0140666D01*
X0025200Y0142934D01*
X0024332Y0145029D01*
X0022729Y0146632D01*
X0022036Y0146919D01*
X0022383Y0147096D01*
X0023083Y0147605D01*
X0023695Y0148217D01*
X0024204Y0148917D01*
X0024597Y0149689D01*
X0024865Y0150512D01*
X0025000Y0151367D01*
X0025000Y0151600D01*
X0019700Y0151600D01*
X0019700Y0152000D01*
X0025000Y0152000D01*
X0025000Y0152233D01*
X0024865Y0153088D01*
X0024597Y0153911D01*
X0024204Y0154683D01*
X0023695Y0155383D01*
X0023083Y0155995D01*
X0022383Y0156504D01*
X0022036Y0156681D01*
X0022729Y0156968D01*
X0024332Y0158571D01*
X0025200Y0160666D01*
X0025200Y0162934D01*
X0024332Y0165029D01*
X0022729Y0166632D01*
X0022324Y0166800D01*
X0022729Y0166968D01*
X0024332Y0168571D01*
X0025200Y0170666D01*
X0025200Y0172934D01*
X0024332Y0175029D01*
X0022729Y0176632D01*
X0022324Y0176800D01*
X0022729Y0176968D01*
X0024332Y0178571D01*
X0025200Y0180666D01*
X0025200Y0182934D01*
X0024332Y0185029D01*
X0022729Y0186632D01*
X0020634Y0187500D01*
X0018366Y0187500D01*
X0016271Y0186632D01*
X0014668Y0185029D01*
X0013800Y0182934D01*
X0013800Y0180666D01*
X0014668Y0178571D01*
X0016271Y0176968D01*
X0016676Y0176800D01*
X0016271Y0176632D01*
X0014668Y0175029D01*
X0013800Y0172934D01*
X0013800Y0170666D01*
X0014668Y0168571D01*
X0016271Y0166968D01*
X0016676Y0166800D01*
X0016271Y0166632D01*
X0014668Y0165029D01*
X0013800Y0162934D01*
X0013800Y0160666D01*
X0014668Y0158571D01*
X0016271Y0156968D01*
X0016964Y0156681D01*
X0016617Y0156504D01*
X0015917Y0155995D01*
X0015305Y0155383D01*
X0014796Y0154683D01*
X0014403Y0153911D01*
X0014135Y0153088D01*
X0014000Y0152233D01*
X0014000Y0152000D01*
X0019300Y0152000D01*
X0019300Y0151600D01*
X0014000Y0151600D01*
X0014000Y0151367D01*
X0014135Y0150512D01*
X0014403Y0149689D01*
X0014796Y0148917D01*
X0015305Y0148217D01*
X0015917Y0147605D01*
X0016617Y0147096D01*
X0016964Y0146919D01*
X0016271Y0146632D01*
X0014668Y0145029D01*
X0013800Y0142934D01*
X0013800Y0140666D01*
X0014668Y0138571D01*
X0016271Y0136968D01*
X0016676Y0136800D01*
X0016271Y0136632D01*
X0014668Y0135029D01*
X0013800Y0132934D01*
X0013800Y0130666D01*
X0014668Y0128571D01*
X0016271Y0126968D01*
X0016676Y0126800D01*
X0016271Y0126632D01*
X0014668Y0125029D01*
X0013800Y0122934D01*
X0013800Y0120666D01*
X0014668Y0118571D01*
X0016271Y0116968D01*
X0016676Y0116800D01*
X0016271Y0116632D01*
X0014668Y0115029D01*
X0013800Y0112934D01*
X0013800Y0110666D01*
X0014668Y0108571D01*
X0016271Y0106968D01*
X0016676Y0106800D01*
X0016271Y0106632D01*
X0014668Y0105029D01*
X0013800Y0102934D01*
X0013800Y0100666D01*
X0014668Y0098571D01*
X0016271Y0096968D01*
X0016676Y0096800D01*
X0016271Y0096632D01*
X0014668Y0095029D01*
X0013800Y0092934D01*
X0013800Y0090666D01*
X0014668Y0088571D01*
X0016271Y0086968D01*
X0016676Y0086800D01*
X0016271Y0086632D01*
X0014668Y0085029D01*
X0013800Y0082934D01*
X0013800Y0080666D01*
X0014668Y0078571D01*
X0016271Y0076968D01*
X0016676Y0076800D01*
X0016271Y0076632D01*
X0014668Y0075029D01*
X0013800Y0072934D01*
X0013800Y0070666D01*
X0014668Y0068571D01*
X0016271Y0066968D01*
X0018366Y0066100D01*
X0020634Y0066100D01*
X0022729Y0066968D01*
X0024332Y0068571D01*
X0024634Y0069300D01*
X0028214Y0069300D01*
X0075250Y0022264D01*
X0075250Y0021004D01*
X0075859Y0019534D01*
X0076984Y0018409D01*
X0078454Y0017800D01*
X0080046Y0017800D01*
X0082702Y0019681D02*
X0091901Y0019681D01*
X0091901Y0021279D02*
X0083250Y0021279D01*
X0083133Y0022878D02*
X0091901Y0022878D01*
X0091901Y0024476D02*
X0082230Y0024476D01*
X0078511Y0026075D02*
X0091901Y0026075D01*
X0091901Y0027673D02*
X0076912Y0027673D01*
X0075314Y0029272D02*
X0091901Y0029272D01*
X0091901Y0030870D02*
X0073715Y0030870D01*
X0072117Y0032469D02*
X0091901Y0032469D01*
X0091901Y0034068D02*
X0070518Y0034068D01*
X0068920Y0035666D02*
X0091901Y0035666D01*
X0091901Y0037265D02*
X0067321Y0037265D01*
X0065722Y0038863D02*
X0091901Y0038863D01*
X0091901Y0040462D02*
X0064124Y0040462D01*
X0062525Y0042060D02*
X0091901Y0042060D01*
X0091901Y0043659D02*
X0060927Y0043659D01*
X0059328Y0045257D02*
X0091901Y0045257D01*
X0091901Y0046856D02*
X0057730Y0046856D01*
X0056131Y0048454D02*
X0091901Y0048454D01*
X0091901Y0050053D02*
X0054533Y0050053D01*
X0052934Y0051651D02*
X0091901Y0051651D01*
X0091901Y0053250D02*
X0051336Y0053250D01*
X0049737Y0054848D02*
X0091901Y0054848D01*
X0091901Y0056447D02*
X0048139Y0056447D01*
X0046540Y0058045D02*
X0091901Y0058045D01*
X0091901Y0059644D02*
X0044942Y0059644D01*
X0043343Y0061242D02*
X0091901Y0061242D01*
X0091901Y0062841D02*
X0041745Y0062841D01*
X0040146Y0064439D02*
X0091901Y0064439D01*
X0091901Y0066038D02*
X0038548Y0066038D01*
X0036949Y0067636D02*
X0075603Y0067636D01*
X0076271Y0066968D02*
X0078366Y0066100D01*
X0080634Y0066100D01*
X0082729Y0066968D01*
X0084332Y0068571D01*
X0085200Y0070666D01*
X0085200Y0072934D01*
X0084332Y0075029D01*
X0082729Y0076632D01*
X0082324Y0076800D01*
X0082729Y0076968D01*
X0084332Y0078571D01*
X0085200Y0080666D01*
X0085200Y0082934D01*
X0084332Y0085029D01*
X0082729Y0086632D01*
X0082324Y0086800D01*
X0082729Y0086968D01*
X0084332Y0088571D01*
X0085200Y0090666D01*
X0085200Y0092934D01*
X0084332Y0095029D01*
X0082729Y0096632D01*
X0082324Y0096800D01*
X0082729Y0096968D01*
X0084332Y0098571D01*
X0085200Y0100666D01*
X0085200Y0102934D01*
X0084332Y0105029D01*
X0082729Y0106632D01*
X0082324Y0106800D01*
X0082729Y0106968D01*
X0084332Y0108571D01*
X0085200Y0110666D01*
X0085200Y0112934D01*
X0084332Y0115029D01*
X0082729Y0116632D01*
X0082324Y0116800D01*
X0082729Y0116968D01*
X0084332Y0118571D01*
X0085200Y0120666D01*
X0085200Y0122934D01*
X0084332Y0125029D01*
X0082729Y0126632D01*
X0082324Y0126800D01*
X0082729Y0126968D01*
X0084332Y0128571D01*
X0085200Y0130666D01*
X0085200Y0132934D01*
X0084332Y0135029D01*
X0082729Y0136632D01*
X0082324Y0136800D01*
X0082729Y0136968D01*
X0084332Y0138571D01*
X0085200Y0140666D01*
X0085200Y0142934D01*
X0084332Y0145029D01*
X0082729Y0146632D01*
X0082324Y0146800D01*
X0082729Y0146968D01*
X0084332Y0148571D01*
X0085200Y0150666D01*
X0085200Y0152934D01*
X0084332Y0155029D01*
X0082729Y0156632D01*
X0082324Y0156800D01*
X0082729Y0156968D01*
X0084332Y0158571D01*
X0085200Y0160666D01*
X0085200Y0162934D01*
X0084332Y0165029D01*
X0082729Y0166632D01*
X0082324Y0166800D01*
X0082729Y0166968D01*
X0084332Y0168571D01*
X0085200Y0170666D01*
X0085200Y0172934D01*
X0084332Y0175029D01*
X0082729Y0176632D01*
X0082324Y0176800D01*
X0082729Y0176968D01*
X0084332Y0178571D01*
X0085200Y0180666D01*
X0085200Y0182934D01*
X0084332Y0185029D01*
X0082729Y0186632D01*
X0080634Y0187500D01*
X0078366Y0187500D01*
X0076271Y0186632D01*
X0074668Y0185029D01*
X0073800Y0182934D01*
X0073800Y0180666D01*
X0074668Y0178571D01*
X0076271Y0176968D01*
X0076676Y0176800D01*
X0076271Y0176632D01*
X0074668Y0175029D01*
X0073800Y0172934D01*
X0073800Y0170666D01*
X0074668Y0168571D01*
X0076271Y0166968D01*
X0076676Y0166800D01*
X0076271Y0166632D01*
X0074668Y0165029D01*
X0073800Y0162934D01*
X0073800Y0160666D01*
X0074668Y0158571D01*
X0076271Y0156968D01*
X0076676Y0156800D01*
X0076271Y0156632D01*
X0074668Y0155029D01*
X0073800Y0152934D01*
X0073800Y0150666D01*
X0074668Y0148571D01*
X0076271Y0146968D01*
X0076676Y0146800D01*
X0076271Y0146632D01*
X0074668Y0145029D01*
X0073800Y0142934D01*
X0073800Y0140666D01*
X0074668Y0138571D01*
X0076271Y0136968D01*
X0076676Y0136800D01*
X0076271Y0136632D01*
X0074668Y0135029D01*
X0073800Y0132934D01*
X0073800Y0130666D01*
X0074668Y0128571D01*
X0076271Y0126968D01*
X0076676Y0126800D01*
X0076271Y0126632D01*
X0074668Y0125029D01*
X0073800Y0122934D01*
X0073800Y0120666D01*
X0074668Y0118571D01*
X0076271Y0116968D01*
X0076676Y0116800D01*
X0076271Y0116632D01*
X0074668Y0115029D01*
X0073800Y0112934D01*
X0073800Y0110666D01*
X0074668Y0108571D01*
X0076271Y0106968D01*
X0076676Y0106800D01*
X0076271Y0106632D01*
X0074668Y0105029D01*
X0073800Y0102934D01*
X0073800Y0100666D01*
X0074668Y0098571D01*
X0076271Y0096968D01*
X0076676Y0096800D01*
X0076271Y0096632D01*
X0074668Y0095029D01*
X0073800Y0092934D01*
X0073800Y0090666D01*
X0074668Y0088571D01*
X0076271Y0086968D01*
X0076676Y0086800D01*
X0076271Y0086632D01*
X0074668Y0085029D01*
X0073800Y0082934D01*
X0073800Y0080666D01*
X0074668Y0078571D01*
X0076271Y0076968D01*
X0076676Y0076800D01*
X0076271Y0076632D01*
X0074668Y0075029D01*
X0073800Y0072934D01*
X0073800Y0070666D01*
X0074668Y0068571D01*
X0076271Y0066968D01*
X0074393Y0069235D02*
X0035351Y0069235D01*
X0033752Y0070833D02*
X0073800Y0070833D01*
X0073800Y0072432D02*
X0032154Y0072432D01*
X0030398Y0074030D02*
X0074254Y0074030D01*
X0075268Y0075629D02*
X0023732Y0075629D01*
X0022988Y0077227D02*
X0076012Y0077227D01*
X0074562Y0078826D02*
X0024438Y0078826D01*
X0025100Y0080424D02*
X0073900Y0080424D01*
X0073800Y0082023D02*
X0025200Y0082023D01*
X0024915Y0083621D02*
X0074085Y0083621D01*
X0074859Y0085220D02*
X0024141Y0085220D01*
X0022368Y0086818D02*
X0076632Y0086818D01*
X0074822Y0088417D02*
X0024178Y0088417D01*
X0024930Y0090015D02*
X0074070Y0090015D01*
X0073800Y0091614D02*
X0025200Y0091614D01*
X0025085Y0093212D02*
X0073915Y0093212D01*
X0074578Y0094811D02*
X0024422Y0094811D01*
X0022952Y0096409D02*
X0076048Y0096409D01*
X0075231Y0098008D02*
X0023769Y0098008D01*
X0024761Y0099606D02*
X0074239Y0099606D01*
X0073800Y0101205D02*
X0025200Y0101205D01*
X0025200Y0102803D02*
X0073800Y0102803D01*
X0074408Y0104402D02*
X0024592Y0104402D01*
X0023360Y0106001D02*
X0075639Y0106001D01*
X0075640Y0107599D02*
X0023360Y0107599D01*
X0024592Y0109198D02*
X0074408Y0109198D01*
X0073800Y0110796D02*
X0025200Y0110796D01*
X0025200Y0112395D02*
X0073800Y0112395D01*
X0074239Y0113993D02*
X0024761Y0113993D01*
X0023769Y0115592D02*
X0075231Y0115592D01*
X0076049Y0117190D02*
X0022951Y0117190D01*
X0024422Y0118789D02*
X0074578Y0118789D01*
X0073916Y0120387D02*
X0025084Y0120387D01*
X0025200Y0121986D02*
X0073800Y0121986D01*
X0074069Y0123584D02*
X0024931Y0123584D01*
X0024178Y0125183D02*
X0074822Y0125183D01*
X0076631Y0126781D02*
X0022369Y0126781D01*
X0024141Y0128380D02*
X0074859Y0128380D01*
X0074085Y0129978D02*
X0024915Y0129978D01*
X0025200Y0131577D02*
X0073800Y0131577D01*
X0073900Y0133175D02*
X0025100Y0133175D01*
X0024438Y0134774D02*
X0074562Y0134774D01*
X0075268Y0137971D02*
X0023732Y0137971D01*
X0022989Y0136372D02*
X0076011Y0136372D01*
X0074254Y0139569D02*
X0024746Y0139569D01*
X0025200Y0141168D02*
X0073800Y0141168D01*
X0073800Y0142766D02*
X0025200Y0142766D01*
X0024607Y0144365D02*
X0074393Y0144365D01*
X0075602Y0145963D02*
X0023398Y0145963D01*
X0023024Y0147562D02*
X0075677Y0147562D01*
X0074424Y0149160D02*
X0024328Y0149160D01*
X0024904Y0150759D02*
X0073800Y0150759D01*
X0073800Y0152357D02*
X0024980Y0152357D01*
X0024574Y0153956D02*
X0074223Y0153956D01*
X0075193Y0155554D02*
X0023524Y0155554D01*
X0022914Y0157153D02*
X0076086Y0157153D01*
X0074593Y0158751D02*
X0024407Y0158751D01*
X0025069Y0160350D02*
X0073931Y0160350D01*
X0073800Y0161948D02*
X0025200Y0161948D01*
X0024946Y0163547D02*
X0074054Y0163547D01*
X0074784Y0165145D02*
X0024216Y0165145D01*
X0024103Y0168342D02*
X0074897Y0168342D01*
X0074100Y0169941D02*
X0024900Y0169941D01*
X0025200Y0171539D02*
X0073800Y0171539D01*
X0073885Y0173138D02*
X0025115Y0173138D01*
X0024453Y0174737D02*
X0074547Y0174737D01*
X0075974Y0176335D02*
X0023026Y0176335D01*
X0023695Y0177934D02*
X0075305Y0177934D01*
X0074270Y0179532D02*
X0024730Y0179532D01*
X0025200Y0181131D02*
X0073800Y0181131D01*
X0073800Y0182729D02*
X0025200Y0182729D01*
X0024623Y0184328D02*
X0074377Y0184328D01*
X0075565Y0185926D02*
X0023435Y0185926D01*
X0015974Y0176335D02*
X0007800Y0176335D01*
X0007800Y0174737D02*
X0014547Y0174737D01*
X0013885Y0173138D02*
X0007800Y0173138D01*
X0007800Y0171539D02*
X0013800Y0171539D01*
X0014100Y0169941D02*
X0007800Y0169941D01*
X0007800Y0168342D02*
X0014897Y0168342D01*
X0014784Y0165145D02*
X0007800Y0165145D01*
X0007800Y0163547D02*
X0014054Y0163547D01*
X0013800Y0161948D02*
X0007800Y0161948D01*
X0007800Y0160350D02*
X0013931Y0160350D01*
X0014593Y0158751D02*
X0007800Y0158751D01*
X0007800Y0157153D02*
X0016086Y0157153D01*
X0015476Y0155554D02*
X0007800Y0155554D01*
X0007800Y0153956D02*
X0014426Y0153956D01*
X0014020Y0152357D02*
X0007800Y0152357D01*
X0007800Y0150759D02*
X0014096Y0150759D01*
X0014672Y0149160D02*
X0007800Y0149160D01*
X0007800Y0147562D02*
X0015976Y0147562D01*
X0015602Y0145963D02*
X0007800Y0145963D01*
X0007800Y0144365D02*
X0014393Y0144365D01*
X0013800Y0142766D02*
X0007800Y0142766D01*
X0007800Y0141168D02*
X0013800Y0141168D01*
X0014254Y0139569D02*
X0007800Y0139569D01*
X0007800Y0137971D02*
X0015268Y0137971D01*
X0016011Y0136372D02*
X0007800Y0136372D01*
X0007800Y0134774D02*
X0014562Y0134774D01*
X0013900Y0133175D02*
X0007800Y0133175D01*
X0007800Y0131577D02*
X0013800Y0131577D01*
X0014085Y0129978D02*
X0007800Y0129978D01*
X0007800Y0128380D02*
X0014859Y0128380D01*
X0016631Y0126781D02*
X0007800Y0126781D01*
X0007800Y0125183D02*
X0014822Y0125183D01*
X0014069Y0123584D02*
X0007800Y0123584D01*
X0007800Y0121986D02*
X0013800Y0121986D01*
X0013916Y0120387D02*
X0007800Y0120387D01*
X0007800Y0118789D02*
X0014578Y0118789D01*
X0016049Y0117190D02*
X0007800Y0117190D01*
X0007800Y0115592D02*
X0015231Y0115592D01*
X0014239Y0113993D02*
X0007800Y0113993D01*
X0007800Y0112395D02*
X0013800Y0112395D01*
X0013800Y0110796D02*
X0007800Y0110796D01*
X0007800Y0109198D02*
X0014408Y0109198D01*
X0015640Y0107599D02*
X0007800Y0107599D01*
X0007800Y0106001D02*
X0015639Y0106001D01*
X0014408Y0104402D02*
X0007800Y0104402D01*
X0007800Y0102803D02*
X0013800Y0102803D01*
X0013800Y0101205D02*
X0007800Y0101205D01*
X0007800Y0099606D02*
X0014239Y0099606D01*
X0015231Y0098008D02*
X0007800Y0098008D01*
X0007800Y0096409D02*
X0016048Y0096409D01*
X0014578Y0094811D02*
X0007800Y0094811D01*
X0007800Y0093212D02*
X0013915Y0093212D01*
X0013800Y0091614D02*
X0007800Y0091614D01*
X0007800Y0090015D02*
X0014070Y0090015D01*
X0014822Y0088417D02*
X0007800Y0088417D01*
X0007800Y0086818D02*
X0016632Y0086818D01*
X0014859Y0085220D02*
X0007800Y0085220D01*
X0007800Y0083621D02*
X0014085Y0083621D01*
X0013800Y0082023D02*
X0007800Y0082023D01*
X0007800Y0080424D02*
X0013900Y0080424D01*
X0014562Y0078826D02*
X0007800Y0078826D01*
X0007800Y0077227D02*
X0016012Y0077227D01*
X0015268Y0075629D02*
X0007800Y0075629D01*
X0007800Y0074030D02*
X0014254Y0074030D01*
X0013800Y0072432D02*
X0007800Y0072432D01*
X0007800Y0070833D02*
X0013800Y0070833D01*
X0014393Y0069235D02*
X0007800Y0069235D01*
X0007800Y0067636D02*
X0015603Y0067636D01*
X0023397Y0067636D02*
X0029878Y0067636D01*
X0028280Y0069235D02*
X0024607Y0069235D01*
X0031477Y0066038D02*
X0007800Y0066038D01*
X0007800Y0064439D02*
X0033075Y0064439D01*
X0034674Y0062841D02*
X0007800Y0062841D01*
X0007800Y0061242D02*
X0036272Y0061242D01*
X0037871Y0059644D02*
X0007800Y0059644D01*
X0007800Y0058045D02*
X0039469Y0058045D01*
X0041068Y0056447D02*
X0007800Y0056447D01*
X0007800Y0054848D02*
X0042666Y0054848D01*
X0044265Y0053250D02*
X0007800Y0053250D01*
X0007800Y0051651D02*
X0045863Y0051651D01*
X0047462Y0050053D02*
X0007800Y0050053D01*
X0007800Y0048454D02*
X0049060Y0048454D01*
X0050659Y0046856D02*
X0007800Y0046856D01*
X0007800Y0045257D02*
X0052257Y0045257D01*
X0053856Y0043659D02*
X0007800Y0043659D01*
X0007800Y0042060D02*
X0055454Y0042060D01*
X0057053Y0040462D02*
X0007800Y0040462D01*
X0007800Y0038863D02*
X0058651Y0038863D01*
X0060250Y0037265D02*
X0007800Y0037265D01*
X0007800Y0035666D02*
X0061848Y0035666D01*
X0063447Y0034068D02*
X0007800Y0034068D01*
X0007800Y0032469D02*
X0065045Y0032469D01*
X0066644Y0030870D02*
X0007800Y0030870D01*
X0007800Y0029272D02*
X0068242Y0029272D01*
X0069841Y0027673D02*
X0007800Y0027673D01*
X0007800Y0026075D02*
X0071440Y0026075D01*
X0073038Y0024476D02*
X0007800Y0024476D01*
X0007800Y0022878D02*
X0074637Y0022878D01*
X0075250Y0021279D02*
X0007800Y0021279D01*
X0007800Y0019681D02*
X0075798Y0019681D01*
X0077773Y0018082D02*
X0007800Y0018082D01*
X0007800Y0166744D02*
X0016541Y0166744D01*
X0022459Y0166744D02*
X0076541Y0166744D01*
X0082459Y0166744D02*
X0091901Y0166744D01*
X0091901Y0168342D02*
X0084103Y0168342D01*
X0084900Y0169941D02*
X0091901Y0169941D01*
X0091901Y0171539D02*
X0085200Y0171539D01*
X0085115Y0173138D02*
X0091901Y0173138D01*
X0091901Y0174737D02*
X0084453Y0174737D01*
X0083026Y0176335D02*
X0091901Y0176335D01*
X0091901Y0177934D02*
X0083695Y0177934D01*
X0084730Y0179532D02*
X0091901Y0179532D01*
X0091901Y0181131D02*
X0085200Y0181131D01*
X0085200Y0182729D02*
X0091901Y0182729D01*
X0091901Y0184328D02*
X0084623Y0184328D01*
X0083435Y0185926D02*
X0091901Y0185926D01*
X0091901Y0187525D02*
X0007800Y0187525D01*
X0007800Y0189123D02*
X0091901Y0189123D01*
X0091901Y0190722D02*
X0007800Y0190722D01*
X0007800Y0192320D02*
X0091901Y0192320D01*
X0091901Y0193919D02*
X0007800Y0193919D01*
X0007800Y0195517D02*
X0091901Y0195517D01*
X0091901Y0165145D02*
X0084216Y0165145D01*
X0084946Y0163547D02*
X0091901Y0163547D01*
X0091901Y0161948D02*
X0085200Y0161948D01*
X0085069Y0160350D02*
X0091901Y0160350D01*
X0091901Y0158751D02*
X0084407Y0158751D01*
X0082914Y0157153D02*
X0091901Y0157153D01*
X0091901Y0155554D02*
X0083807Y0155554D01*
X0084777Y0153956D02*
X0091901Y0153956D01*
X0091901Y0152357D02*
X0085200Y0152357D01*
X0085200Y0150759D02*
X0091901Y0150759D01*
X0091901Y0149160D02*
X0084576Y0149160D01*
X0083323Y0147562D02*
X0091901Y0147562D01*
X0091901Y0145963D02*
X0083398Y0145963D01*
X0084607Y0144365D02*
X0091901Y0144365D01*
X0091901Y0142766D02*
X0085200Y0142766D01*
X0085200Y0141168D02*
X0091901Y0141168D01*
X0091901Y0139569D02*
X0084746Y0139569D01*
X0083732Y0137971D02*
X0091901Y0137971D01*
X0091901Y0136372D02*
X0082989Y0136372D01*
X0084438Y0134774D02*
X0091901Y0134774D01*
X0091901Y0133175D02*
X0085100Y0133175D01*
X0085200Y0131577D02*
X0091901Y0131577D01*
X0091901Y0129978D02*
X0084915Y0129978D01*
X0084141Y0128380D02*
X0091901Y0128380D01*
X0091901Y0126781D02*
X0082369Y0126781D01*
X0084178Y0125183D02*
X0091901Y0125183D01*
X0091901Y0123584D02*
X0084931Y0123584D01*
X0085200Y0121986D02*
X0091901Y0121986D01*
X0091901Y0120387D02*
X0085084Y0120387D01*
X0084422Y0118789D02*
X0091901Y0118789D01*
X0091901Y0117190D02*
X0082951Y0117190D01*
X0083769Y0115592D02*
X0091901Y0115592D01*
X0091901Y0113993D02*
X0084761Y0113993D01*
X0085200Y0112395D02*
X0091901Y0112395D01*
X0091901Y0110796D02*
X0085200Y0110796D01*
X0084592Y0109198D02*
X0091901Y0109198D01*
X0091901Y0107599D02*
X0083360Y0107599D01*
X0083360Y0106001D02*
X0091901Y0106001D01*
X0091901Y0104402D02*
X0084592Y0104402D01*
X0085200Y0102803D02*
X0091901Y0102803D01*
X0091901Y0101205D02*
X0085200Y0101205D01*
X0084761Y0099606D02*
X0091901Y0099606D01*
X0091901Y0098008D02*
X0083769Y0098008D01*
X0082952Y0096409D02*
X0091901Y0096409D01*
X0091901Y0094811D02*
X0084422Y0094811D01*
X0085085Y0093212D02*
X0091901Y0093212D01*
X0091901Y0091614D02*
X0085200Y0091614D01*
X0084930Y0090015D02*
X0091901Y0090015D01*
X0091901Y0088417D02*
X0084178Y0088417D01*
X0082368Y0086818D02*
X0091901Y0086818D01*
X0091901Y0085220D02*
X0084141Y0085220D01*
X0084915Y0083621D02*
X0091901Y0083621D01*
X0091901Y0082023D02*
X0085200Y0082023D01*
X0085100Y0080424D02*
X0091901Y0080424D01*
X0091901Y0078826D02*
X0084438Y0078826D01*
X0082988Y0077227D02*
X0091901Y0077227D01*
X0091901Y0075629D02*
X0083732Y0075629D01*
X0084746Y0074030D02*
X0091901Y0074030D01*
X0091901Y0072432D02*
X0085200Y0072432D01*
X0085200Y0070833D02*
X0091901Y0070833D01*
X0091901Y0069235D02*
X0084607Y0069235D01*
X0083397Y0067636D02*
X0091901Y0067636D01*
X0015305Y0177934D02*
X0007800Y0177934D01*
X0007800Y0179532D02*
X0014270Y0179532D01*
X0013800Y0181131D02*
X0007800Y0181131D01*
X0007800Y0182729D02*
X0013800Y0182729D01*
X0014377Y0184328D02*
X0007800Y0184328D01*
X0007800Y0185926D02*
X0015565Y0185926D01*
M02*
