%
M48
M72
T01C0.02400
T02C0.04000
%
T01
X79250Y21800
T02
X19500Y71800
X19500Y81800
X19500Y91800
X19500Y101800
X19500Y111800
X19500Y121800
X19500Y131800
X19500Y141800
X19500Y151800
X19500Y161800
X19500Y171800
X19500Y181800
X79500Y181800
X79500Y171800
X79500Y161800
X79500Y151800
X79500Y141800
X79500Y131800
X79500Y121800
X79500Y111800
X79500Y101800
X79500Y91800
X79500Y81800
X79500Y71800
M30
