G75*
%MOIN*%
%OFA0B0*%
%FSLAX25Y25*%
%IPPOS*%
%LPD*%
%AMOC8*
5,1,8,0,0,1.08239X$1,22.5*
%
%ADD10R,0.04737X0.10446*%
%ADD11R,0.10446X0.04737*%
%ADD12R,0.36233X0.44107*%
%ADD13C,0.08200*%
%ADD14R,0.02800X0.03400*%
%ADD15C,0.04800*%
D10*
X0027429Y0059300D03*
X0032941Y0059300D03*
X0038453Y0059300D03*
X0043965Y0059300D03*
X0049476Y0059300D03*
X0054988Y0059300D03*
X0060500Y0059300D03*
X0066012Y0059300D03*
D11*
X0071524Y0048276D03*
X0071524Y0042765D03*
X0071524Y0037253D03*
X0071524Y0031741D03*
X0071524Y0026229D03*
X0071524Y0020717D03*
X0071524Y0015206D03*
X0071524Y0009694D03*
X0021917Y0009694D03*
X0021917Y0015206D03*
X0021917Y0020717D03*
X0021917Y0026229D03*
X0021917Y0031741D03*
X0021917Y0037253D03*
X0021917Y0042765D03*
X0021917Y0048276D03*
D12*
X0046720Y0029772D03*
D13*
X0019500Y0071800D03*
X0019500Y0081800D03*
X0019500Y0091800D03*
X0019500Y0101800D03*
X0019500Y0111800D03*
X0019500Y0121800D03*
X0019500Y0131800D03*
X0019500Y0141800D03*
X0019500Y0151800D03*
X0019500Y0161800D03*
X0019500Y0171800D03*
X0019500Y0181800D03*
X0079500Y0181800D03*
X0079500Y0171800D03*
X0079500Y0161800D03*
X0079500Y0151800D03*
X0079500Y0141800D03*
X0079500Y0131800D03*
X0079500Y0121800D03*
X0079500Y0111800D03*
X0079500Y0101800D03*
X0079500Y0091800D03*
X0079500Y0081800D03*
X0079500Y0071800D03*
D14*
X0008000Y0014600D03*
X0008000Y0019000D03*
D15*
X0079250Y0021800D03*
M02*
