G75*
%MOIN*%
%OFA0B0*%
%FSLAX25Y25*%
%IPPOS*%
%LPD*%
%AMOC8*
5,1,8,0,0,1.08239X$1,22.5*
%
%ADD10C,0.00000*%
%ADD11R,0.03937X0.09646*%
%ADD12R,0.09646X0.03937*%
%ADD13R,0.35433X0.43307*%
%ADD14C,0.07400*%
%ADD15R,0.02000X0.02600*%
%ADD16C,0.01000*%
%ADD17C,0.01600*%
%ADD18C,0.04000*%
D10*
X0003000Y0001800D02*
X0003000Y0201761D01*
X0096701Y0201761D01*
X0096701Y0001800D01*
X0003000Y0001800D01*
D11*
X0027429Y0059300D03*
X0032941Y0059300D03*
X0038453Y0059300D03*
X0043965Y0059300D03*
X0049476Y0059300D03*
X0054988Y0059300D03*
X0060500Y0059300D03*
X0066012Y0059300D03*
D12*
X0071524Y0048276D03*
X0071524Y0042765D03*
X0071524Y0037253D03*
X0071524Y0031741D03*
X0071524Y0026229D03*
X0071524Y0020717D03*
X0071524Y0015206D03*
X0071524Y0009694D03*
X0021917Y0009694D03*
X0021917Y0015206D03*
X0021917Y0020717D03*
X0021917Y0026229D03*
X0021917Y0031741D03*
X0021917Y0037253D03*
X0021917Y0042765D03*
X0021917Y0048276D03*
D13*
X0046720Y0029772D03*
D14*
X0019500Y0071800D03*
X0019500Y0081800D03*
X0019500Y0091800D03*
X0019500Y0101800D03*
X0019500Y0111800D03*
X0019500Y0121800D03*
X0019500Y0131800D03*
X0019500Y0141800D03*
X0019500Y0151800D03*
X0019500Y0161800D03*
X0019500Y0171800D03*
X0019500Y0181800D03*
X0079500Y0181800D03*
X0079500Y0171800D03*
X0079500Y0161800D03*
X0079500Y0151800D03*
X0079500Y0141800D03*
X0079500Y0131800D03*
X0079500Y0121800D03*
X0079500Y0111800D03*
X0079500Y0101800D03*
X0079500Y0091800D03*
X0079500Y0081800D03*
X0079500Y0071800D03*
D15*
X0008000Y0019000D03*
X0008000Y0014600D03*
D16*
X0008000Y0020550D02*
X0008000Y0130550D01*
X0019250Y0141800D01*
X0019500Y0141800D01*
X0019500Y0151800D02*
X0020500Y0151800D01*
X0045500Y0126800D01*
X0081750Y0126800D01*
X0085500Y0123050D01*
X0085500Y0070550D01*
X0071750Y0056800D01*
X0071750Y0049300D01*
X0071524Y0048276D01*
X0071750Y0043050D02*
X0071524Y0042765D01*
X0071750Y0041800D01*
X0071750Y0038050D01*
X0071524Y0037253D01*
X0071750Y0036800D01*
X0071750Y0031800D01*
X0071524Y0031741D01*
X0071750Y0021800D02*
X0071524Y0020717D01*
X0071750Y0021800D02*
X0079250Y0021800D01*
X0075500Y0043050D02*
X0071750Y0043050D01*
X0075500Y0043050D02*
X0088000Y0055550D01*
X0088000Y0144300D01*
X0080500Y0151800D01*
X0079500Y0151800D01*
X0079250Y0101800D02*
X0079500Y0101800D01*
X0079250Y0101800D02*
X0079250Y0099300D01*
X0066750Y0086800D01*
X0016750Y0086800D01*
X0010500Y0080550D01*
X0010500Y0039300D01*
X0018000Y0031800D01*
X0021750Y0031800D01*
X0021917Y0031741D01*
X0021917Y0037253D02*
X0021750Y0038050D01*
X0018000Y0038050D01*
X0013000Y0043050D01*
X0013000Y0073050D01*
X0016750Y0076800D01*
X0064250Y0076800D01*
X0079250Y0091800D01*
X0079500Y0091800D01*
X0079500Y0081800D02*
X0079250Y0081800D01*
X0071750Y0074300D01*
X0029250Y0074300D01*
X0015500Y0060550D01*
X0015500Y0045550D01*
X0018000Y0043050D01*
X0021750Y0043050D01*
X0021917Y0042765D01*
X0021917Y0048276D02*
X0023000Y0049300D01*
X0023000Y0064300D01*
X0030500Y0071800D01*
X0079500Y0071800D01*
X0021917Y0015206D02*
X0021750Y0014300D01*
D17*
X0021917Y0014300D01*
X0021917Y0009694D01*
X0021917Y0009300D01*
X0030500Y0009300D01*
X0033000Y0014300D02*
X0033000Y0026229D01*
X0033000Y0026800D01*
X0043000Y0036800D01*
X0027429Y0052371D01*
X0027429Y0059300D01*
X0027245Y0059116D02*
X0027613Y0059116D01*
X0027613Y0052864D01*
X0027004Y0052254D01*
X0027004Y0052245D01*
X0025500Y0052245D01*
X0025500Y0052677D01*
X0027245Y0052677D01*
X0027245Y0059116D01*
X0027245Y0058045D02*
X0027613Y0058045D01*
X0027613Y0056447D02*
X0027245Y0056447D01*
X0027245Y0054848D02*
X0027613Y0054848D01*
X0027613Y0053250D02*
X0027245Y0053250D01*
X0028158Y0065923D02*
X0031536Y0069300D01*
X0074366Y0069300D01*
X0074668Y0068571D01*
X0076271Y0066968D01*
X0078366Y0066100D01*
X0080634Y0066100D01*
X0082729Y0066968D01*
X0084332Y0068571D01*
X0085200Y0070666D01*
X0085200Y0072934D01*
X0084332Y0075029D01*
X0082729Y0076632D01*
X0082324Y0076800D01*
X0082729Y0076968D01*
X0084332Y0078571D01*
X0085200Y0080666D01*
X0085200Y0082934D01*
X0084332Y0085029D01*
X0082729Y0086632D01*
X0082324Y0086800D01*
X0082729Y0086968D01*
X0084332Y0088571D01*
X0085200Y0090666D01*
X0085200Y0092934D01*
X0084332Y0095029D01*
X0082729Y0096632D01*
X0082324Y0096800D01*
X0082729Y0096968D01*
X0084332Y0098571D01*
X0085200Y0100666D01*
X0085200Y0102934D01*
X0084332Y0105029D01*
X0082729Y0106632D01*
X0082324Y0106800D01*
X0082729Y0106968D01*
X0084332Y0108571D01*
X0085200Y0110666D01*
X0085200Y0112934D01*
X0084332Y0115029D01*
X0082729Y0116632D01*
X0082324Y0116800D01*
X0082729Y0116968D01*
X0084332Y0118571D01*
X0085200Y0120666D01*
X0085200Y0122934D01*
X0084332Y0125029D01*
X0082729Y0126632D01*
X0082324Y0126800D01*
X0082729Y0126968D01*
X0084332Y0128571D01*
X0085200Y0130666D01*
X0085200Y0132934D01*
X0084332Y0135029D01*
X0082729Y0136632D01*
X0082324Y0136800D01*
X0082729Y0136968D01*
X0084332Y0138571D01*
X0085200Y0140666D01*
X0085200Y0142934D01*
X0084754Y0144010D01*
X0085500Y0143264D01*
X0085500Y0056586D01*
X0078146Y0049232D01*
X0078146Y0050482D01*
X0078024Y0050940D01*
X0077787Y0051350D01*
X0077452Y0051685D01*
X0077041Y0051922D01*
X0076583Y0052045D01*
X0071708Y0052045D01*
X0071708Y0048461D01*
X0071339Y0048461D01*
X0071339Y0052045D01*
X0066464Y0052045D01*
X0066437Y0052038D01*
X0066437Y0052254D01*
X0066214Y0052477D01*
X0068809Y0052477D01*
X0069980Y0053649D01*
X0069980Y0064951D01*
X0068809Y0066123D01*
X0030144Y0066123D01*
X0029879Y0065857D01*
X0029635Y0065923D01*
X0028158Y0065923D01*
X0028273Y0066038D02*
X0030059Y0066038D01*
X0029872Y0067636D02*
X0075603Y0067636D01*
X0074393Y0069235D02*
X0031470Y0069235D01*
X0024634Y0089300D02*
X0025200Y0090666D01*
X0025200Y0092934D01*
X0024332Y0095029D01*
X0022729Y0096632D01*
X0022324Y0096800D01*
X0022729Y0096968D01*
X0024332Y0098571D01*
X0025200Y0100666D01*
X0025200Y0102934D01*
X0024332Y0105029D01*
X0022729Y0106632D01*
X0022324Y0106800D01*
X0022729Y0106968D01*
X0024332Y0108571D01*
X0025200Y0110666D01*
X0025200Y0112934D01*
X0024332Y0115029D01*
X0022729Y0116632D01*
X0022324Y0116800D01*
X0022729Y0116968D01*
X0024332Y0118571D01*
X0025200Y0120666D01*
X0025200Y0122934D01*
X0024332Y0125029D01*
X0022729Y0126632D01*
X0022324Y0126800D01*
X0022729Y0126968D01*
X0024332Y0128571D01*
X0025200Y0130666D01*
X0025200Y0132934D01*
X0024332Y0135029D01*
X0022729Y0136632D01*
X0022324Y0136800D01*
X0022729Y0136968D01*
X0024332Y0138571D01*
X0025200Y0140666D01*
X0025200Y0142934D01*
X0024332Y0145029D01*
X0022729Y0146632D01*
X0022036Y0146919D01*
X0022383Y0147096D01*
X0023083Y0147605D01*
X0023695Y0148217D01*
X0024204Y0148917D01*
X0024597Y0149689D01*
X0024865Y0150512D01*
X0025000Y0151367D01*
X0025000Y0151600D01*
X0019700Y0151600D01*
X0019700Y0152000D01*
X0025000Y0152000D01*
X0025000Y0152233D01*
X0024865Y0153088D01*
X0024597Y0153911D01*
X0024204Y0154683D01*
X0023695Y0155383D01*
X0023083Y0155995D01*
X0022383Y0156504D01*
X0022036Y0156681D01*
X0022729Y0156968D01*
X0024332Y0158571D01*
X0025200Y0160666D01*
X0025200Y0162934D01*
X0024332Y0165029D01*
X0022729Y0166632D01*
X0022324Y0166800D01*
X0022729Y0166968D01*
X0024332Y0168571D01*
X0025200Y0170666D01*
X0025200Y0172934D01*
X0024332Y0175029D01*
X0022729Y0176632D01*
X0022324Y0176800D01*
X0022729Y0176968D01*
X0024332Y0178571D01*
X0025200Y0180666D01*
X0025200Y0182934D01*
X0024332Y0185029D01*
X0022729Y0186632D01*
X0020634Y0187500D01*
X0018366Y0187500D01*
X0016271Y0186632D01*
X0014668Y0185029D01*
X0013800Y0182934D01*
X0013800Y0180666D01*
X0014668Y0178571D01*
X0016271Y0176968D01*
X0016676Y0176800D01*
X0016271Y0176632D01*
X0014668Y0175029D01*
X0013800Y0172934D01*
X0013800Y0170666D01*
X0014668Y0168571D01*
X0016271Y0166968D01*
X0016676Y0166800D01*
X0016271Y0166632D01*
X0014668Y0165029D01*
X0013800Y0162934D01*
X0013800Y0160666D01*
X0014668Y0158571D01*
X0016271Y0156968D01*
X0016964Y0156681D01*
X0016617Y0156504D01*
X0015917Y0155995D01*
X0015305Y0155383D01*
X0014796Y0154683D01*
X0014403Y0153911D01*
X0014135Y0153088D01*
X0014000Y0152233D01*
X0014000Y0152000D01*
X0019300Y0152000D01*
X0019300Y0151600D01*
X0014000Y0151600D01*
X0014000Y0151367D01*
X0014135Y0150512D01*
X0014403Y0149689D01*
X0014796Y0148917D01*
X0015305Y0148217D01*
X0015917Y0147605D01*
X0016617Y0147096D01*
X0016964Y0146919D01*
X0016271Y0146632D01*
X0014668Y0145029D01*
X0013800Y0142934D01*
X0013800Y0140666D01*
X0014029Y0140114D01*
X0007800Y0133886D01*
X0007800Y0196961D01*
X0091901Y0196961D01*
X0091901Y0006600D01*
X0078050Y0006600D01*
X0078346Y0006897D01*
X0078346Y0017845D01*
X0078454Y0017800D01*
X0080046Y0017800D01*
X0081516Y0018409D01*
X0082641Y0019534D01*
X0083250Y0021004D01*
X0083250Y0022596D01*
X0082641Y0024066D01*
X0081516Y0025191D01*
X0080046Y0025800D01*
X0078454Y0025800D01*
X0078346Y0025755D01*
X0078346Y0042361D01*
X0089416Y0053431D01*
X0090119Y0054134D01*
X0090500Y0055053D01*
X0090500Y0144797D01*
X0090119Y0145716D01*
X0085191Y0150645D01*
X0085200Y0150666D01*
X0085200Y0152934D01*
X0084332Y0155029D01*
X0082729Y0156632D01*
X0082324Y0156800D01*
X0082729Y0156968D01*
X0084332Y0158571D01*
X0085200Y0160666D01*
X0085200Y0162934D01*
X0084332Y0165029D01*
X0082729Y0166632D01*
X0082324Y0166800D01*
X0082729Y0166968D01*
X0084332Y0168571D01*
X0085200Y0170666D01*
X0085200Y0172934D01*
X0084332Y0175029D01*
X0082729Y0176632D01*
X0082324Y0176800D01*
X0082729Y0176968D01*
X0084332Y0178571D01*
X0085200Y0180666D01*
X0085200Y0182934D01*
X0084332Y0185029D01*
X0082729Y0186632D01*
X0080634Y0187500D01*
X0078366Y0187500D01*
X0076271Y0186632D01*
X0074668Y0185029D01*
X0073800Y0182934D01*
X0073800Y0180666D01*
X0074668Y0178571D01*
X0076271Y0176968D01*
X0076676Y0176800D01*
X0076271Y0176632D01*
X0074668Y0175029D01*
X0073800Y0172934D01*
X0073800Y0170666D01*
X0074668Y0168571D01*
X0076271Y0166968D01*
X0076676Y0166800D01*
X0076271Y0166632D01*
X0074668Y0165029D01*
X0073800Y0162934D01*
X0073800Y0160666D01*
X0074668Y0158571D01*
X0076271Y0156968D01*
X0076676Y0156800D01*
X0076271Y0156632D01*
X0074668Y0155029D01*
X0073800Y0152934D01*
X0073800Y0150666D01*
X0074668Y0148571D01*
X0076271Y0146968D01*
X0076676Y0146800D01*
X0076271Y0146632D01*
X0074668Y0145029D01*
X0073800Y0142934D01*
X0073800Y0140666D01*
X0074668Y0138571D01*
X0076271Y0136968D01*
X0076676Y0136800D01*
X0076271Y0136632D01*
X0074668Y0135029D01*
X0073800Y0132934D01*
X0073800Y0130666D01*
X0074668Y0128571D01*
X0076271Y0126968D01*
X0076676Y0126800D01*
X0076271Y0126632D01*
X0074668Y0125029D01*
X0073800Y0122934D01*
X0073800Y0120666D01*
X0074668Y0118571D01*
X0076271Y0116968D01*
X0076676Y0116800D01*
X0076271Y0116632D01*
X0074668Y0115029D01*
X0073800Y0112934D01*
X0073800Y0110666D01*
X0074668Y0108571D01*
X0076271Y0106968D01*
X0076676Y0106800D01*
X0076271Y0106632D01*
X0074668Y0105029D01*
X0073800Y0102934D01*
X0073800Y0100666D01*
X0074668Y0098571D01*
X0074827Y0098412D01*
X0065714Y0089300D01*
X0024634Y0089300D01*
X0024930Y0090015D02*
X0066430Y0090015D01*
X0068028Y0091614D02*
X0025200Y0091614D01*
X0025085Y0093212D02*
X0069627Y0093212D01*
X0071225Y0094811D02*
X0024422Y0094811D01*
X0022952Y0096409D02*
X0072824Y0096409D01*
X0074422Y0098008D02*
X0023769Y0098008D01*
X0024761Y0099606D02*
X0074239Y0099606D01*
X0073800Y0101205D02*
X0025200Y0101205D01*
X0025200Y0102803D02*
X0073800Y0102803D01*
X0074408Y0104402D02*
X0024592Y0104402D01*
X0023360Y0106001D02*
X0075639Y0106001D01*
X0075640Y0107599D02*
X0023360Y0107599D01*
X0024592Y0109198D02*
X0074408Y0109198D01*
X0073800Y0110796D02*
X0025200Y0110796D01*
X0025200Y0112395D02*
X0073800Y0112395D01*
X0074239Y0113993D02*
X0024761Y0113993D01*
X0023769Y0115592D02*
X0075231Y0115592D01*
X0076049Y0117190D02*
X0022951Y0117190D01*
X0024422Y0118789D02*
X0074578Y0118789D01*
X0073916Y0120387D02*
X0025084Y0120387D01*
X0025200Y0121986D02*
X0073800Y0121986D01*
X0074069Y0123584D02*
X0024931Y0123584D01*
X0024178Y0125183D02*
X0074822Y0125183D01*
X0076631Y0126781D02*
X0022369Y0126781D01*
X0024141Y0128380D02*
X0074859Y0128380D01*
X0074085Y0129978D02*
X0024915Y0129978D01*
X0025200Y0131577D02*
X0073800Y0131577D01*
X0073900Y0133175D02*
X0025100Y0133175D01*
X0024438Y0134774D02*
X0074562Y0134774D01*
X0075268Y0137971D02*
X0023732Y0137971D01*
X0022989Y0136372D02*
X0076011Y0136372D01*
X0074254Y0139569D02*
X0024746Y0139569D01*
X0025200Y0141168D02*
X0073800Y0141168D01*
X0073800Y0142766D02*
X0025200Y0142766D01*
X0024607Y0144365D02*
X0074393Y0144365D01*
X0075602Y0145963D02*
X0023398Y0145963D01*
X0023024Y0147562D02*
X0075677Y0147562D01*
X0074424Y0149160D02*
X0024328Y0149160D01*
X0024904Y0150759D02*
X0073800Y0150759D01*
X0073800Y0152357D02*
X0024980Y0152357D01*
X0024574Y0153956D02*
X0074223Y0153956D01*
X0075193Y0155554D02*
X0023524Y0155554D01*
X0022914Y0157153D02*
X0076086Y0157153D01*
X0074593Y0158751D02*
X0024407Y0158751D01*
X0025069Y0160350D02*
X0073931Y0160350D01*
X0073800Y0161948D02*
X0025200Y0161948D01*
X0024946Y0163547D02*
X0074054Y0163547D01*
X0074784Y0165145D02*
X0024216Y0165145D01*
X0024103Y0168342D02*
X0074897Y0168342D01*
X0074100Y0169941D02*
X0024900Y0169941D01*
X0025200Y0171539D02*
X0073800Y0171539D01*
X0073885Y0173138D02*
X0025115Y0173138D01*
X0024453Y0174737D02*
X0074547Y0174737D01*
X0075974Y0176335D02*
X0023026Y0176335D01*
X0023695Y0177934D02*
X0075305Y0177934D01*
X0074270Y0179532D02*
X0024730Y0179532D01*
X0025200Y0181131D02*
X0073800Y0181131D01*
X0073800Y0182729D02*
X0025200Y0182729D01*
X0024623Y0184328D02*
X0074377Y0184328D01*
X0075565Y0185926D02*
X0023435Y0185926D01*
X0015974Y0176335D02*
X0007800Y0176335D01*
X0007800Y0174737D02*
X0014547Y0174737D01*
X0013885Y0173138D02*
X0007800Y0173138D01*
X0007800Y0171539D02*
X0013800Y0171539D01*
X0014100Y0169941D02*
X0007800Y0169941D01*
X0007800Y0168342D02*
X0014897Y0168342D01*
X0014784Y0165145D02*
X0007800Y0165145D01*
X0007800Y0163547D02*
X0014054Y0163547D01*
X0013800Y0161948D02*
X0007800Y0161948D01*
X0007800Y0160350D02*
X0013931Y0160350D01*
X0014593Y0158751D02*
X0007800Y0158751D01*
X0007800Y0157153D02*
X0016086Y0157153D01*
X0015476Y0155554D02*
X0007800Y0155554D01*
X0007800Y0153956D02*
X0014426Y0153956D01*
X0014020Y0152357D02*
X0007800Y0152357D01*
X0007800Y0150759D02*
X0014096Y0150759D01*
X0014672Y0149160D02*
X0007800Y0149160D01*
X0007800Y0147562D02*
X0015976Y0147562D01*
X0015602Y0145963D02*
X0007800Y0145963D01*
X0007800Y0144365D02*
X0014393Y0144365D01*
X0013800Y0142766D02*
X0007800Y0142766D01*
X0007800Y0141168D02*
X0013800Y0141168D01*
X0013484Y0139569D02*
X0007800Y0139569D01*
X0007800Y0137971D02*
X0011885Y0137971D01*
X0010287Y0136372D02*
X0007800Y0136372D01*
X0007800Y0134774D02*
X0008688Y0134774D01*
X0007800Y0166744D02*
X0016541Y0166744D01*
X0022459Y0166744D02*
X0076541Y0166744D01*
X0082459Y0166744D02*
X0091901Y0166744D01*
X0091901Y0168342D02*
X0084103Y0168342D01*
X0084900Y0169941D02*
X0091901Y0169941D01*
X0091901Y0171539D02*
X0085200Y0171539D01*
X0085115Y0173138D02*
X0091901Y0173138D01*
X0091901Y0174737D02*
X0084453Y0174737D01*
X0083026Y0176335D02*
X0091901Y0176335D01*
X0091901Y0177934D02*
X0083695Y0177934D01*
X0084730Y0179532D02*
X0091901Y0179532D01*
X0091901Y0181131D02*
X0085200Y0181131D01*
X0085200Y0182729D02*
X0091901Y0182729D01*
X0091901Y0184328D02*
X0084623Y0184328D01*
X0083435Y0185926D02*
X0091901Y0185926D01*
X0091901Y0187525D02*
X0007800Y0187525D01*
X0007800Y0189123D02*
X0091901Y0189123D01*
X0091901Y0190722D02*
X0007800Y0190722D01*
X0007800Y0192320D02*
X0091901Y0192320D01*
X0091901Y0193919D02*
X0007800Y0193919D01*
X0007800Y0195517D02*
X0091901Y0195517D01*
X0091901Y0165145D02*
X0084216Y0165145D01*
X0084946Y0163547D02*
X0091901Y0163547D01*
X0091901Y0161948D02*
X0085200Y0161948D01*
X0085069Y0160350D02*
X0091901Y0160350D01*
X0091901Y0158751D02*
X0084407Y0158751D01*
X0082914Y0157153D02*
X0091901Y0157153D01*
X0091901Y0155554D02*
X0083807Y0155554D01*
X0084777Y0153956D02*
X0091901Y0153956D01*
X0091901Y0152357D02*
X0085200Y0152357D01*
X0085200Y0150759D02*
X0091901Y0150759D01*
X0091901Y0149160D02*
X0086675Y0149160D01*
X0088274Y0147562D02*
X0091901Y0147562D01*
X0091901Y0145963D02*
X0089872Y0145963D01*
X0090500Y0144365D02*
X0091901Y0144365D01*
X0091901Y0142766D02*
X0090500Y0142766D01*
X0090500Y0141168D02*
X0091901Y0141168D01*
X0091901Y0139569D02*
X0090500Y0139569D01*
X0090500Y0137971D02*
X0091901Y0137971D01*
X0091901Y0136372D02*
X0090500Y0136372D01*
X0090500Y0134774D02*
X0091901Y0134774D01*
X0091901Y0133175D02*
X0090500Y0133175D01*
X0090500Y0131577D02*
X0091901Y0131577D01*
X0091901Y0129978D02*
X0090500Y0129978D01*
X0090500Y0128380D02*
X0091901Y0128380D01*
X0091901Y0126781D02*
X0090500Y0126781D01*
X0090500Y0125183D02*
X0091901Y0125183D01*
X0091901Y0123584D02*
X0090500Y0123584D01*
X0090500Y0121986D02*
X0091901Y0121986D01*
X0091901Y0120387D02*
X0090500Y0120387D01*
X0090500Y0118789D02*
X0091901Y0118789D01*
X0091901Y0117190D02*
X0090500Y0117190D01*
X0090500Y0115592D02*
X0091901Y0115592D01*
X0091901Y0113993D02*
X0090500Y0113993D01*
X0090500Y0112395D02*
X0091901Y0112395D01*
X0091901Y0110796D02*
X0090500Y0110796D01*
X0090500Y0109198D02*
X0091901Y0109198D01*
X0091901Y0107599D02*
X0090500Y0107599D01*
X0090500Y0106001D02*
X0091901Y0106001D01*
X0091901Y0104402D02*
X0090500Y0104402D01*
X0090500Y0102803D02*
X0091901Y0102803D01*
X0091901Y0101205D02*
X0090500Y0101205D01*
X0090500Y0099606D02*
X0091901Y0099606D01*
X0091901Y0098008D02*
X0090500Y0098008D01*
X0090500Y0096409D02*
X0091901Y0096409D01*
X0091901Y0094811D02*
X0090500Y0094811D01*
X0090500Y0093212D02*
X0091901Y0093212D01*
X0091901Y0091614D02*
X0090500Y0091614D01*
X0090500Y0090015D02*
X0091901Y0090015D01*
X0091901Y0088417D02*
X0090500Y0088417D01*
X0090500Y0086818D02*
X0091901Y0086818D01*
X0091901Y0085220D02*
X0090500Y0085220D01*
X0090500Y0083621D02*
X0091901Y0083621D01*
X0091901Y0082023D02*
X0090500Y0082023D01*
X0090500Y0080424D02*
X0091901Y0080424D01*
X0091901Y0078826D02*
X0090500Y0078826D01*
X0090500Y0077227D02*
X0091901Y0077227D01*
X0091901Y0075629D02*
X0090500Y0075629D01*
X0090500Y0074030D02*
X0091901Y0074030D01*
X0091901Y0072432D02*
X0090500Y0072432D01*
X0090500Y0070833D02*
X0091901Y0070833D01*
X0091901Y0069235D02*
X0090500Y0069235D01*
X0090500Y0067636D02*
X0091901Y0067636D01*
X0091901Y0066038D02*
X0090500Y0066038D01*
X0090500Y0064439D02*
X0091901Y0064439D01*
X0091901Y0062841D02*
X0090500Y0062841D01*
X0090500Y0061242D02*
X0091901Y0061242D01*
X0091901Y0059644D02*
X0090500Y0059644D01*
X0090500Y0058045D02*
X0091901Y0058045D01*
X0091901Y0056447D02*
X0090500Y0056447D01*
X0090415Y0054848D02*
X0091901Y0054848D01*
X0091901Y0053250D02*
X0089235Y0053250D01*
X0087637Y0051651D02*
X0091901Y0051651D01*
X0091901Y0050053D02*
X0086038Y0050053D01*
X0084440Y0048454D02*
X0091901Y0048454D01*
X0091901Y0046856D02*
X0082841Y0046856D01*
X0081243Y0045257D02*
X0091901Y0045257D01*
X0091901Y0043659D02*
X0079644Y0043659D01*
X0078346Y0042060D02*
X0091901Y0042060D01*
X0091901Y0040462D02*
X0078346Y0040462D01*
X0078346Y0038863D02*
X0091901Y0038863D01*
X0091901Y0037265D02*
X0078346Y0037265D01*
X0078346Y0035666D02*
X0091901Y0035666D01*
X0091901Y0034068D02*
X0078346Y0034068D01*
X0078346Y0032469D02*
X0091901Y0032469D01*
X0091901Y0030870D02*
X0078346Y0030870D01*
X0078346Y0029272D02*
X0091901Y0029272D01*
X0091901Y0027673D02*
X0078346Y0027673D01*
X0078346Y0026075D02*
X0091901Y0026075D01*
X0091901Y0024476D02*
X0082230Y0024476D01*
X0083133Y0022878D02*
X0091901Y0022878D01*
X0091901Y0021279D02*
X0083250Y0021279D01*
X0082702Y0019681D02*
X0091901Y0019681D01*
X0091901Y0018082D02*
X0080727Y0018082D01*
X0078346Y0016484D02*
X0091901Y0016484D01*
X0091901Y0014885D02*
X0078346Y0014885D01*
X0078346Y0013287D02*
X0091901Y0013287D01*
X0091901Y0011688D02*
X0078346Y0011688D01*
X0078346Y0010090D02*
X0091901Y0010090D01*
X0091901Y0008491D02*
X0078346Y0008491D01*
X0078342Y0006893D02*
X0091901Y0006893D01*
X0078967Y0050053D02*
X0078146Y0050053D01*
X0077486Y0051651D02*
X0080566Y0051651D01*
X0082164Y0053250D02*
X0069581Y0053250D01*
X0069980Y0054848D02*
X0083763Y0054848D01*
X0085361Y0056447D02*
X0069980Y0056447D01*
X0069980Y0058045D02*
X0085500Y0058045D01*
X0085500Y0059644D02*
X0069980Y0059644D01*
X0069980Y0061242D02*
X0085500Y0061242D01*
X0085500Y0062841D02*
X0069980Y0062841D01*
X0069980Y0064439D02*
X0085500Y0064439D01*
X0085500Y0066038D02*
X0068894Y0066038D01*
X0071339Y0051651D02*
X0071708Y0051651D01*
X0071708Y0050053D02*
X0071339Y0050053D01*
X0071524Y0048276D02*
X0063000Y0048276D01*
X0063000Y0046800D01*
X0053000Y0046800D01*
X0043000Y0036800D01*
X0033000Y0026229D02*
X0021917Y0026229D01*
X0021733Y0026075D02*
X0010500Y0026075D01*
X0010500Y0027673D02*
X0015294Y0027673D01*
X0015294Y0028435D02*
X0015294Y0026413D01*
X0021733Y0026413D01*
X0021733Y0026045D01*
X0015294Y0026045D01*
X0015294Y0024024D01*
X0015360Y0023780D01*
X0015098Y0023517D01*
X0010500Y0023517D01*
X0010500Y0035764D01*
X0015094Y0031170D01*
X0015094Y0028944D01*
X0015360Y0028679D01*
X0015294Y0028435D01*
X0015094Y0029272D02*
X0010500Y0029272D01*
X0010500Y0030870D02*
X0015094Y0030870D01*
X0013795Y0032469D02*
X0010500Y0032469D01*
X0010500Y0034068D02*
X0012197Y0034068D01*
X0010598Y0035666D02*
X0010500Y0035666D01*
X0010500Y0024476D02*
X0015294Y0024476D01*
X0015098Y0017917D02*
X0011000Y0017917D01*
X0011000Y0016872D01*
X0010687Y0016559D01*
X0010800Y0016137D01*
X0010800Y0014600D01*
X0008000Y0014600D01*
X0018000Y0014600D01*
X0018000Y0014300D01*
X0021750Y0014300D01*
X0021917Y0014300D02*
X0033000Y0014300D01*
X0022102Y0014885D02*
X0021733Y0014885D01*
X0021733Y0015021D02*
X0022102Y0015021D01*
X0022102Y0009878D01*
X0021733Y0009878D01*
X0021733Y0009509D01*
X0022102Y0009509D01*
X0022102Y0006600D01*
X0021733Y0006600D01*
X0021733Y0009509D01*
X0015294Y0009509D01*
X0015294Y0007488D01*
X0015417Y0007030D01*
X0015654Y0006620D01*
X0015674Y0006600D01*
X0007800Y0006600D01*
X0007800Y0011500D01*
X0008000Y0011500D01*
X0009237Y0011500D01*
X0009695Y0011623D01*
X0010105Y0011860D01*
X0010440Y0012195D01*
X0010677Y0012605D01*
X0010800Y0013063D01*
X0010800Y0014600D01*
X0008000Y0014600D01*
X0008000Y0014600D01*
X0008000Y0011500D01*
X0008000Y0014600D01*
X0008000Y0014600D01*
X0008000Y0013287D02*
X0008000Y0013287D01*
X0008000Y0011688D02*
X0008000Y0011688D01*
X0007800Y0010090D02*
X0015294Y0010090D01*
X0015294Y0009878D02*
X0021733Y0009878D01*
X0021733Y0011437D01*
X0021733Y0015021D01*
X0015294Y0015021D01*
X0015294Y0013000D01*
X0015417Y0012542D01*
X0015471Y0012450D01*
X0015417Y0012357D01*
X0015294Y0011899D01*
X0015294Y0009878D01*
X0015294Y0008491D02*
X0007800Y0008491D01*
X0007800Y0006893D02*
X0015497Y0006893D01*
X0015294Y0011688D02*
X0009809Y0011688D01*
X0010800Y0013287D02*
X0015294Y0013287D01*
X0015294Y0014885D02*
X0010800Y0014885D01*
X0010707Y0016484D02*
X0015294Y0016484D01*
X0015294Y0017411D02*
X0015294Y0015390D01*
X0021733Y0015390D01*
X0021733Y0015021D01*
X0021733Y0013287D02*
X0022102Y0013287D01*
X0022102Y0011688D02*
X0021733Y0011688D01*
X0021733Y0010090D02*
X0022102Y0010090D01*
X0022102Y0008491D02*
X0021733Y0008491D01*
X0021733Y0006893D02*
X0022102Y0006893D01*
X0015294Y0017411D02*
X0015360Y0017655D01*
X0015098Y0017917D01*
X0021917Y0020717D02*
X0008000Y0020717D01*
X0008000Y0020550D01*
X0008000Y0019000D01*
X0082368Y0086818D02*
X0085500Y0086818D01*
X0085500Y0085220D02*
X0084141Y0085220D01*
X0084915Y0083621D02*
X0085500Y0083621D01*
X0085500Y0082023D02*
X0085200Y0082023D01*
X0085100Y0080424D02*
X0085500Y0080424D01*
X0085500Y0078826D02*
X0084438Y0078826D01*
X0085500Y0077227D02*
X0082988Y0077227D01*
X0083732Y0075629D02*
X0085500Y0075629D01*
X0085500Y0074030D02*
X0084746Y0074030D01*
X0085200Y0072432D02*
X0085500Y0072432D01*
X0085500Y0070833D02*
X0085200Y0070833D01*
X0085500Y0069235D02*
X0084607Y0069235D01*
X0085500Y0067636D02*
X0083397Y0067636D01*
X0084178Y0088417D02*
X0085500Y0088417D01*
X0085500Y0090015D02*
X0084930Y0090015D01*
X0085200Y0091614D02*
X0085500Y0091614D01*
X0085500Y0093212D02*
X0085085Y0093212D01*
X0085500Y0094811D02*
X0084422Y0094811D01*
X0085500Y0096409D02*
X0082952Y0096409D01*
X0083769Y0098008D02*
X0085500Y0098008D01*
X0085500Y0099606D02*
X0084761Y0099606D01*
X0085200Y0101205D02*
X0085500Y0101205D01*
X0085500Y0102803D02*
X0085200Y0102803D01*
X0085500Y0104402D02*
X0084592Y0104402D01*
X0085500Y0106001D02*
X0083360Y0106001D01*
X0083360Y0107599D02*
X0085500Y0107599D01*
X0085500Y0109198D02*
X0084592Y0109198D01*
X0085200Y0110796D02*
X0085500Y0110796D01*
X0085500Y0112395D02*
X0085200Y0112395D01*
X0085500Y0113993D02*
X0084761Y0113993D01*
X0085500Y0115592D02*
X0083769Y0115592D01*
X0082951Y0117190D02*
X0085500Y0117190D01*
X0085500Y0118789D02*
X0084422Y0118789D01*
X0085084Y0120387D02*
X0085500Y0120387D01*
X0085500Y0121986D02*
X0085200Y0121986D01*
X0084931Y0123584D02*
X0085500Y0123584D01*
X0085500Y0125183D02*
X0084178Y0125183D01*
X0085500Y0126781D02*
X0082369Y0126781D01*
X0084141Y0128380D02*
X0085500Y0128380D01*
X0085500Y0129978D02*
X0084915Y0129978D01*
X0085200Y0131577D02*
X0085500Y0131577D01*
X0085500Y0133175D02*
X0085100Y0133175D01*
X0085500Y0134774D02*
X0084438Y0134774D01*
X0085500Y0136372D02*
X0082989Y0136372D01*
X0083732Y0137971D02*
X0085500Y0137971D01*
X0085500Y0139569D02*
X0084746Y0139569D01*
X0085200Y0141168D02*
X0085500Y0141168D01*
X0085500Y0142766D02*
X0085200Y0142766D01*
X0015305Y0177934D02*
X0007800Y0177934D01*
X0007800Y0179532D02*
X0014270Y0179532D01*
X0013800Y0181131D02*
X0007800Y0181131D01*
X0007800Y0182729D02*
X0013800Y0182729D01*
X0014377Y0184328D02*
X0007800Y0184328D01*
X0007800Y0185926D02*
X0015565Y0185926D01*
D18*
X0079250Y0021800D03*
M02*
